<svg width="114" height="29" viewBox="0 0 114 29" fill="none" xmlns="http://www.w3.org/2000/svg">
<path d="M53.338 8.34836C52.7398 8.32966 52.2393 8.78925 52.2198 9.37501C52.2192 9.39866 52.2192 9.42182 52.2198 9.44519V14.7169C49.6259 12.6739 45.8349 13.0799 43.7514 15.6238C42.8922 16.6731 42.4244 17.9788 42.4249 19.3241C42.3675 22.5851 45.017 25.2735 48.3429 25.3295C51.6675 25.3845 54.4091 22.7865 54.466 19.5261C54.4677 19.459 54.4677 19.3913 54.466 19.3241V9.45014C54.4747 9.1543 54.3558 8.86856 54.1377 8.66405C53.9243 8.45899 53.6363 8.34679 53.338 8.35391V8.34836ZM65.9045 15.1436C63.5516 12.8385 59.7383 12.8404 57.3881 15.1466C56.2605 16.2539 55.6272 17.7542 55.6267 19.3186C55.5698 22.5796 58.2189 25.2678 61.5441 25.3239C64.8694 25.3795 67.611 22.781 67.6679 19.5201C67.6688 19.4529 67.6688 19.3857 67.6679 19.3186C67.6685 18.5419 67.5175 17.7729 67.2216 17.0523C66.9183 16.3353 66.47 15.6864 65.9045 15.1436ZM65.127 20.7399C64.934 21.1778 64.6606 21.5761 64.3188 21.916C63.975 22.2553 63.5681 22.5275 63.1204 22.718C62.1764 23.1102 61.1098 23.1102 60.1653 22.718C59.2638 22.3396 58.5477 21.6322 58.1698 20.7455C57.7737 19.829 57.7737 18.7943 58.1698 17.8778C58.5503 16.9968 59.2658 16.2949 60.1653 15.9211C61.1098 15.5289 62.1764 15.5289 63.1204 15.9211C63.5681 16.1121 63.975 16.3843 64.3188 16.7232C64.6606 17.0628 64.934 17.4608 65.127 17.8986C65.5198 18.8122 65.5198 19.8427 65.127 20.7556V20.7399ZM90.7986 14.5103C90.7991 14.3649 90.769 14.2216 90.709 14.0887C90.6486 13.9615 90.5653 13.8448 90.465 13.7443C90.3652 13.6428 90.2463 13.5621 90.1135 13.507C89.9744 13.4504 89.8245 13.4217 89.6731 13.4226C89.4601 13.4212 89.2501 13.4807 89.0712 13.5943L82.6424 17.6961V9.46031C82.6481 9.16588 82.5297 8.88156 82.3141 8.67563C82.1073 8.46258 81.8195 8.34374 81.5191 8.34836C80.8998 8.34483 80.3946 8.83415 80.3906 9.44106V24.1105C80.3869 24.4035 80.5058 24.6856 80.7188 24.8902C80.9271 25.1038 81.2171 25.2229 81.5191 25.2174C81.8184 25.222 82.1053 25.1032 82.3105 24.8902C82.5241 24.6856 82.6424 24.4035 82.6393 24.1105V20.3103L83.9499 19.4675L88.9193 24.9381C89.1203 25.128 89.3907 25.2306 89.67 25.2229C89.8208 25.224 89.9707 25.1957 90.1104 25.1381C90.2432 25.0841 90.3621 25.0038 90.4613 24.9023C90.5638 24.7988 90.6464 24.6791 90.7053 24.5478C90.7648 24.4145 90.7958 24.2711 90.7949 24.1261C90.7958 23.8399 90.6842 23.5646 90.4841 23.3566L85.8649 18.2531L90.3683 15.3864C90.6594 15.1896 90.8228 14.8557 90.7986 14.5103ZM72.1456 16.6984C72.4925 16.3621 72.9019 16.094 73.3506 15.9071C73.8164 15.7125 74.3179 15.6151 74.8235 15.6182C75.2718 15.6137 75.7164 15.6919 76.1347 15.8485C76.5545 16.0136 76.9426 16.247 77.2844 16.5372C77.4923 16.6993 77.7502 16.7857 78.0159 16.7815C78.3189 16.7937 78.6125 16.6816 78.8272 16.4711C79.0374 16.2611 79.1527 15.9751 79.1445 15.6798C79.1487 15.3591 79.0059 15.0536 78.7567 14.8466C77.6794 13.9014 76.2778 13.3893 74.8323 13.4135C71.5065 13.4135 68.8104 16.0566 68.8104 19.3181C68.8021 22.5744 71.4879 25.2215 74.8085 25.229C76.2581 25.2331 77.6603 24.7226 78.7567 23.7934C78.9827 23.5823 79.1098 23.2885 79.1078 22.9825C79.1275 22.3963 78.6586 21.9055 78.061 21.8862C78.0376 21.8852 78.0134 21.8852 77.9895 21.8862C77.7341 21.8873 77.485 21.968 77.2787 22.1164C76.9432 22.4068 76.5571 22.6376 76.1397 22.7967C75.7205 22.9511 75.2764 23.0279 74.8291 23.0238C74.323 23.0269 73.8217 22.9289 73.3562 22.7346C72.907 22.5471 72.4981 22.2781 72.1507 21.9427C70.6752 20.5046 70.6685 18.1657 72.1341 16.7196C72.1397 16.7144 72.1456 16.7094 72.1507 16.7039L72.1456 16.6984ZM113.135 14.1519C112.917 13.9518 112.658 13.7993 112.376 13.7044C112.054 13.5903 111.719 13.5145 111.378 13.4771C111.041 13.4369 110.702 13.416 110.361 13.4151C109.672 13.4135 108.988 13.5296 108.34 13.759C107.704 13.9868 107.112 14.3149 106.585 14.7305V14.5103C106.56 13.9014 106.037 13.4272 105.416 13.4515C104.83 13.4741 104.359 13.9348 104.336 14.5103V24.1261C104.361 24.7346 104.884 25.2088 105.505 25.1846C106.091 25.1618 106.561 24.7008 106.585 24.1261V19.3186C106.582 18.8216 106.681 18.3297 106.879 17.8728C107.069 17.435 107.343 17.0361 107.685 16.6993C108.031 16.3635 108.437 16.0948 108.884 15.9076C109.35 15.7136 109.852 15.6151 110.358 15.6182C110.861 15.6137 111.361 15.7031 111.831 15.8812C111.979 15.9515 112.14 15.9908 112.304 15.9969C112.456 15.9985 112.606 15.9696 112.745 15.9126C112.878 15.8576 112.997 15.7772 113.096 15.6753C113.197 15.5748 113.278 15.459 113.338 15.3308C113.399 15.1951 113.43 15.0476 113.43 14.8997C113.441 14.6223 113.331 14.3534 113.128 14.1605L113.135 14.1519ZM102.686 17.0609C101.729 14.8684 99.5372 13.4419 97.1062 13.4292C93.781 13.4283 91.0854 16.0706 91.0838 19.3307V19.3326C91.0838 22.5947 93.78 25.2397 97.1068 25.2406C98.5507 25.2411 99.9472 24.7322 101.041 23.8076C101.057 23.792 101.081 23.7708 101.085 23.7661C101.183 23.6879 101.269 23.5971 101.339 23.4936C101.701 22.9835 101.572 22.2826 101.052 21.9281C100.615 21.6504 100.042 21.7005 99.6633 22.0503C99.626 22.0831 99.5206 22.1796 99.5035 22.1932L99.4876 22.2069C99.1675 22.4739 98.8015 22.6836 98.407 22.8264C97.9888 22.9709 97.5489 23.0417 97.1062 23.0359C96.6979 23.0386 96.2925 22.9745 95.9058 22.8471C95.529 22.7235 95.1737 22.5441 94.8522 22.3148C94.5321 22.0857 94.2508 21.8079 94.0189 21.4929C93.7816 21.1706 93.6001 20.8123 93.4816 20.4324H101.995C102.295 20.4385 102.583 20.3265 102.796 20.1203C103.015 19.9175 103.134 19.6321 103.124 19.3357C103.131 18.5576 102.981 17.7855 102.684 17.0639L102.686 17.0609ZM93.4801 18.2394C93.5928 17.8593 93.7701 17.5007 94.0065 17.1795C94.2401 16.8635 94.5228 16.5858 94.8449 16.3565C95.1706 16.1281 95.5299 15.949 95.9105 15.8248C96.2956 15.6996 96.6984 15.6354 97.1042 15.6359C97.5075 15.6354 97.9082 15.6996 98.2903 15.8248C99.0497 16.0728 99.7114 16.5459 100.183 17.1795C100.423 17.5007 100.607 17.8582 100.727 18.2394H93.4801ZM109.292 23.6268C108.862 23.6334 108.518 23.9808 108.525 24.4035C108.532 24.825 108.887 25.1618 109.317 25.1549C109.744 25.1487 110.086 24.8054 110.084 24.3862C110.079 23.9621 109.724 23.6218 109.292 23.6268ZM109.292 24.9917C108.951 25.0068 108.663 24.7484 108.647 24.414C108.632 24.0798 108.895 23.7959 109.236 23.7813C109.577 23.7661 109.866 24.0248 109.881 24.359C109.882 24.3696 109.882 24.3807 109.882 24.3908C109.893 24.711 109.638 24.9796 109.312 24.9912C109.306 24.9917 109.299 24.9917 109.292 24.9917ZM109.474 24.409V24.3989C109.561 24.3826 109.626 24.3124 109.634 24.2271C109.637 24.161 109.61 24.0974 109.558 24.055C109.476 24.0121 109.383 23.9924 109.29 23.9995C109.19 23.9979 109.092 24.0061 108.994 24.0243V24.7812H109.169V24.4767H109.253C109.353 24.4767 109.399 24.513 109.415 24.5973C109.425 24.6609 109.446 24.7226 109.474 24.7812H109.67C109.639 24.7211 109.619 24.6579 109.611 24.5918C109.603 24.5095 109.55 24.4382 109.471 24.4074L109.474 24.409ZM109.259 24.3523H109.173V24.1338C109.206 24.1297 109.239 24.1297 109.272 24.1338C109.385 24.1338 109.437 24.1803 109.437 24.2494C109.437 24.318 109.357 24.3609 109.262 24.3609L109.259 24.3523ZM40.3584 10.8288C40.2478 10.7429 39.2159 9.97833 37.0399 9.97833C36.4651 9.98083 35.8911 10.0295 35.325 10.1233C34.9037 7.29204 32.5163 5.91149 32.4092 5.8493L31.8251 5.51904L31.4404 6.06289C30.9597 6.79364 30.608 7.59859 30.4017 8.44475C30.012 10.0612 30.2493 11.5791 31.0862 12.8763C30.0755 13.4292 28.4537 13.5651 28.1254 13.5778H1.27621C0.574602 13.5781 0.00590931 14.1341 0.00173495 14.8219C-0.0298236 17.1286 0.369416 19.421 1.17791 21.5873C2.10277 23.9662 3.47848 25.7183 5.26894 26.7904C7.27532 27.9951 10.5343 28.6834 14.2288 28.6834C15.8971 28.6889 17.5633 28.5405 19.2042 28.2411C21.4858 27.8305 23.6804 27.0488 25.6977 25.9278C27.3612 24.984 28.8575 23.7828 30.1293 22.3704C32.2573 20.0089 33.5238 17.3796 34.4669 15.042H34.8428C37.1707 15.042 38.6033 14.1277 39.3932 13.362C39.9179 12.8732 40.3279 12.2784 40.5936 11.6185L40.7601 11.1403L40.3584 10.8288ZM3.76701 12.8055H7.36524C7.53886 12.8055 7.67965 12.6678 7.67965 12.4976V9.35522C7.68001 9.18512 7.5405 9.04617 7.36724 9.04579H3.76701C3.59319 9.04579 3.45257 9.18349 3.45257 9.35327V12.4976C3.45257 12.6678 3.59319 12.8055 3.76701 12.8055ZM8.72653 12.8055H12.3253C12.4989 12.8055 12.639 12.6678 12.639 12.4976V9.35522C12.6401 9.18512 12.5006 9.04617 12.3268 9.04579H8.72653C8.55271 9.04579 8.4112 9.18403 8.4112 9.35522V12.4976C8.41209 12.6682 8.55327 12.8055 8.72653 12.8055ZM13.7583 12.8055H17.3561C17.5303 12.8055 17.6704 12.6678 17.6704 12.4976V9.35522C17.6715 9.18512 17.5318 9.04617 17.3581 9.04579H13.7583C13.5852 9.04579 13.4446 9.18349 13.4446 9.35327V12.4976C13.4446 12.6678 13.5857 12.8055 13.7583 12.8055ZM18.7338 12.8055H22.3315C22.5048 12.8055 22.6465 12.6682 22.6474 12.4976V9.35522C22.6474 9.18403 22.5057 9.04579 22.3315 9.04579H18.7338C18.56 9.04579 18.4194 9.18349 18.4194 9.35327V12.4976C18.4194 12.6678 18.56 12.8055 18.7338 12.8055ZM8.72653 8.28427H12.3253C12.4989 8.28318 12.639 8.14494 12.639 7.97467V4.83146C12.639 4.66168 12.4989 4.52382 12.3253 4.52382H8.72653C8.55327 4.52382 8.41209 4.66114 8.4112 4.83146V7.97467C8.41209 8.14494 8.55271 8.28318 8.72653 8.28427ZM13.7583 8.28427H17.3561C17.5303 8.28318 17.6704 8.14494 17.6704 7.97467V4.83146C17.6704 4.66168 17.5298 4.52382 17.3561 4.52382H13.7583C13.5852 4.52382 13.4446 4.66168 13.4446 4.83146V7.97467C13.4446 8.14494 13.5852 8.28318 13.7583 8.28427ZM18.7338 8.28427H22.3315C22.5053 8.28318 22.6465 8.14494 22.6474 7.97467V4.83146C22.6465 4.66114 22.5048 4.52382 22.3315 4.52382H18.7338C18.56 4.52382 18.4194 4.66168 18.4194 4.83146V7.97467C18.4194 8.14494 18.5597 8.28318 18.7338 8.28427ZM18.7338 3.76083H22.3315C22.5048 3.76083 22.6465 3.62351 22.6474 3.45281V0.308564C22.6465 0.137865 22.5048 0 22.3315 0H18.7338C18.56 0 18.4194 0.138245 18.4194 0.308564V3.45281C18.4194 3.62297 18.56 3.76083 18.7338 3.76083ZM23.7501 12.8055H27.3479C27.5216 12.8055 27.6627 12.6682 27.6638 12.4976V9.35522C27.6638 9.18403 27.5221 9.04579 27.3479 9.04579H23.7501C23.5765 9.04579 23.4358 9.18349 23.4358 9.35327V12.4976C23.4358 12.6678 23.5765 12.8055 23.7501 12.8055ZM51.923 20.7455C51.5389 21.6333 50.8207 22.3412 49.9187 22.723C48.9736 23.1158 47.9064 23.1158 46.9615 22.723C46.0609 22.3442 45.3463 21.6369 44.9679 20.7512C44.5725 19.8341 44.5725 18.7999 44.9679 17.8835C45.3469 17.0003 46.0618 16.2968 46.9615 15.9222C47.9064 15.5292 48.9736 15.5292 49.9187 15.9222C50.8207 16.304 51.5389 17.0124 51.923 17.899C52.3184 18.8122 52.3184 19.8432 51.923 20.7567V20.7455Z" fill="#4592CF"/>
</svg>
