<svg width="36" height="36" viewBox="0 0 36 36" fill="none" xmlns="http://www.w3.org/2000/svg">
<path fill-rule="evenodd" clip-rule="evenodd" d="M18.0001 0C27.9412 0 36 8.05887 36 17.9999C36 27.9411 27.9412 36 18.0001 36C8.05885 36 0 27.9411 0 17.9999C0 8.05887 8.05885 0 18.0001 0Z" fill="#FEFEFE"/>
<mask id="mask0_22_721" style="mask-type:luminance" maskUnits="userSpaceOnUse" x="4" y="4" width="29" height="30">
<path d="M32.4265 17.277C32.3808 16.7762 32.2957 16.1977 32.1279 15.5588C31.9602 14.9215 31.7122 14.2242 31.3568 13.5001C30.9948 12.7805 30.5207 12.0268 29.9106 11.3026C29.6727 11.0152 29.4124 10.7358 29.1304 10.4613C29.551 8.78876 28.6197 7.34492 28.6197 7.34492C27.0131 7.24505 25.9926 7.84317 25.6106 8.12019C25.5472 8.09363 25.4842 8.06468 25.4207 8.04011C25.1488 7.9283 24.8645 7.82359 24.5752 7.73421C24.2859 7.64411 23.9893 7.56144 23.6876 7.48615C23.3867 7.41523 23.0777 7.35474 22.7664 7.30601C22.7106 7.29618 22.6571 7.28881 22.6033 7.28383C21.9008 5.03583 19.886 4.09961 19.886 4.09961C17.6423 5.52426 17.2143 7.51769 17.2143 7.51769C17.2143 7.51769 17.2051 7.56383 17.1927 7.63674C17.0663 7.67306 16.9447 7.70699 16.8209 7.7457C16.6481 7.79709 16.4804 7.86236 16.3053 7.92345C16.1355 7.99137 15.9653 8.05492 15.7952 8.12995C15.4571 8.27377 15.1192 8.43917 14.7911 8.62103C14.4728 8.80097 14.1614 8.99785 13.8549 9.20933C13.8092 9.18954 13.7772 9.17301 13.7772 9.17301C10.6704 7.98699 7.90939 9.41344 7.90939 9.41344C7.65893 12.7193 9.14892 14.8026 9.44573 15.1794C9.37043 15.3861 9.30443 15.5902 9.23896 15.7993C9.00776 16.548 8.83818 17.316 8.73074 18.1134C8.71414 18.2257 8.70179 18.3421 8.68958 18.4587C5.82115 19.8736 4.97058 22.7828 4.97058 22.7828C7.36718 25.5397 10.1604 25.7098 10.1604 25.7098C10.1631 25.7074 10.1672 25.7074 10.1672 25.7025C10.5248 26.3347 10.9357 26.9396 11.3952 27.5016C11.5871 27.7346 11.7936 27.9635 12.0026 28.1817C11.1276 30.6784 12.1243 32.7617 12.1243 32.7617C14.7911 32.8611 16.5463 31.5948 16.9133 31.3033C17.1803 31.3932 17.4455 31.4734 17.7198 31.5437C18.539 31.7552 19.3778 31.8792 20.2165 31.9155C20.4257 31.9255 20.6347 31.9279 20.8463 31.9279H20.948L21.0166 31.9255L21.1477 31.923L21.2785 31.9155L21.2812 31.9182C22.5381 33.7123 24.7504 33.9651 24.7504 33.9651C26.3206 32.3071 26.4131 30.6636 26.4131 30.3065V30.2337C26.4131 30.2067 26.4105 30.185 26.4105 30.156C26.7411 29.9248 27.0569 29.6769 27.3511 29.4097C27.9807 28.8405 28.5297 28.1917 28.9868 27.4942C29.0282 27.4307 29.0695 27.3628 29.1132 27.2949C30.8925 27.3967 32.1468 26.1909 32.1468 26.1909C31.8503 24.3363 30.7931 23.4347 30.5766 23.2595C30.5766 23.2595 30.5668 23.2521 30.5551 23.2423C30.5429 23.233 30.5356 23.2256 30.5356 23.2256C30.5231 23.2181 30.509 23.2084 30.4965 23.199C30.5064 23.0867 30.5163 22.9778 30.5231 22.8635C30.5356 22.6638 30.5429 22.4645 30.5429 22.2654V21.9545L30.5356 21.8281L30.5255 21.6604C30.5231 21.6018 30.518 21.5505 30.5138 21.5C30.5114 21.4488 30.504 21.3975 30.4965 21.3464L30.4767 21.1934L30.4552 21.0405C30.4263 20.8381 30.385 20.634 30.3412 20.4323C30.1536 19.6329 29.8428 18.8745 29.432 18.1935C29.0211 17.5134 28.5058 16.9076 27.9296 16.4C27.3511 15.8894 26.7042 15.4812 26.0263 15.1746C25.3478 14.8687 24.6355 14.6737 23.9238 14.5837C23.5685 14.5376 23.2139 14.5208 22.8636 14.5232L22.7324 14.5258H22.6544L22.6009 14.5282L22.4726 14.5376C22.4239 14.54 22.3728 14.5449 22.3289 14.5497C22.1489 14.5672 21.9693 14.5911 21.7942 14.6274C21.0917 14.7588 20.4257 15.0142 19.8373 15.3646C19.2514 15.7142 18.7414 16.1539 18.328 16.6504C17.9124 17.1487 17.5911 17.6976 17.3703 18.2664C17.1489 18.8356 17.0249 19.4239 16.991 19.995C16.9812 20.1358 16.9785 20.2818 16.9812 20.4206C16.9812 20.4569 16.9812 20.4909 16.9836 20.5274L16.986 20.6438C16.9934 20.7124 16.9961 20.7826 17.0034 20.8505C17.0323 21.1397 17.0834 21.4167 17.1611 21.6869C17.3141 22.219 17.5622 22.7051 17.8711 23.1164C18.177 23.5271 18.5414 23.867 18.9307 24.1346C19.3199 24.4018 19.7355 24.5917 20.1463 24.7107C20.557 24.8322 20.9653 24.8835 21.3521 24.8835C21.4002 24.8835 21.4489 24.8835 21.495 24.8809C21.5222 24.8809 21.5464 24.8785 21.5727 24.8785C21.5999 24.8785 21.6241 24.8761 21.6506 24.8761C21.6919 24.8735 21.7307 24.8661 21.7727 24.8637C21.7818 24.8637 21.7942 24.8613 21.8067 24.8613L21.8453 24.8543C21.8719 24.852 21.894 24.847 21.9182 24.8446C21.9693 24.8371 22.0106 24.8274 22.0594 24.8174C22.1051 24.8082 22.1489 24.8008 22.1952 24.7884C22.285 24.7693 22.3677 24.7423 22.453 24.7131C22.6207 24.6596 22.7785 24.5917 22.9247 24.5164C23.0726 24.4388 23.2065 24.3561 23.3332 24.2686C23.3669 24.2414 23.4034 24.2172 23.4397 24.1884C23.5759 24.0811 23.5977 23.8868 23.4884 23.7554C23.396 23.6387 23.2306 23.6122 23.1018 23.6801C23.0702 23.6975 23.0364 23.7167 23.005 23.7314C22.8927 23.7843 22.7761 23.8331 22.6497 23.8744C22.5232 23.9133 22.3969 23.9447 22.2611 23.9718C22.1926 23.9817 22.1247 23.991 22.0545 23.9984C22.0201 24.0008 21.9835 24.0058 21.9522 24.0058C21.9158 24.0058 21.8818 24.0082 21.8503 24.0082C21.8183 24.0082 21.7818 24.0082 21.7505 24.0058C21.7092 24.0034 21.6677 24.0034 21.6241 23.9984H21.6093L21.5801 23.996C21.5611 23.9934 21.5413 23.9934 21.5266 23.9886C21.4877 23.9866 21.4537 23.9793 21.4149 23.9769C21.1135 23.9355 20.8075 23.8478 20.5157 23.714C20.2216 23.5826 19.9371 23.396 19.6844 23.167C19.4316 22.9388 19.2077 22.6619 19.0356 22.3505C18.8628 22.0389 18.7388 21.6943 18.6802 21.3322C18.6513 21.1521 18.6389 20.9621 18.6439 20.7802C18.6463 20.7291 18.6463 20.6804 18.6513 20.6291V20.6051L18.6536 20.5662C18.6562 20.5396 18.6562 20.5174 18.6611 20.4935C18.6705 20.3934 18.6876 20.2942 18.7024 20.1943C18.8406 19.4043 19.2373 18.6338 19.8495 18.0479C20.0025 17.9043 20.1678 17.7661 20.3456 17.6472C20.5232 17.5251 20.7074 17.4183 20.9016 17.3282C21.099 17.2381 21.3007 17.1654 21.5099 17.1093C21.7189 17.0538 21.9329 17.0175 22.1489 16.9977C22.2587 16.9879 22.3677 16.9853 22.4769 16.9853H22.5528L22.6424 16.9879L22.6984 16.9903H22.7297L22.8199 16.9977C23.0535 17.0175 23.2892 17.0488 23.5197 17.1049C23.9819 17.2068 24.4314 17.3769 24.8546 17.6102C25.6934 18.0771 26.4105 18.8016 26.8478 19.6786C27.0693 20.1167 27.2247 20.586 27.3 21.072C27.3197 21.1934 27.3314 21.3148 27.3413 21.4389L27.3487 21.5313L27.3511 21.624C27.3537 21.6553 27.3537 21.6843 27.3537 21.7158C27.3537 21.7478 27.3561 21.7817 27.3537 21.8033V21.8836L27.3511 21.9736C27.3487 22.0346 27.3437 22.1314 27.3413 22.1925C27.3314 22.3289 27.3197 22.4597 27.3024 22.5935C27.2858 22.7247 27.2636 22.8561 27.2421 22.9899C27.2148 23.1207 27.1883 23.2497 27.1544 23.3785C27.0908 23.6363 27.0058 23.8918 26.9063 24.1396C26.709 24.6379 26.447 25.1091 26.1304 25.5471C25.4991 26.4172 24.6331 27.1271 23.6488 27.5793C23.1553 27.8007 22.6356 27.9659 22.1051 28.0505C21.8379 28.0967 21.5679 28.1214 21.2983 28.1313L21.2472 28.133H20.8902C20.744 28.1313 20.6009 28.1238 20.4546 28.1115C19.876 28.0701 19.3075 27.9678 18.7555 27.8049C18.2043 27.6446 17.667 27.428 17.1587 27.1587C16.1422 26.6141 15.2356 25.8726 14.5259 24.976C14.1688 24.5282 13.8573 24.0495 13.6 23.5463C13.3423 23.0407 13.1406 22.5109 12.9896 21.971C12.8414 21.429 12.7489 20.8751 12.7125 20.3157L12.7052 20.2091L12.7029 20.1819V20.114L12.7002 20.0216V19.9025L12.6978 19.7737V19.6861C12.6978 19.6181 12.7002 19.5505 12.7002 19.4796C12.7102 19.2026 12.7323 18.9206 12.7711 18.6389C12.8075 18.3564 12.8538 18.0697 12.9119 17.7877C12.9704 17.5059 13.0407 17.2266 13.1184 16.9514C13.2763 16.402 13.4736 15.8671 13.7067 15.3646C14.1736 14.3554 14.7837 13.4656 15.52 12.7512C15.7025 12.5713 15.892 12.401 16.0917 12.2432C16.2884 12.0853 16.4925 11.9367 16.7066 11.8003C16.9157 11.6621 17.1342 11.5333 17.3578 11.4193C17.4671 11.3581 17.5844 11.307 17.6959 11.2515C17.7538 11.2243 17.8125 11.2002 17.8687 11.1736C17.9266 11.1466 17.9851 11.1225 18.0405 11.0979C18.2719 10.9985 18.5125 10.9184 18.7555 10.8407C18.8165 10.821 18.8769 10.8042 18.9381 10.7846C18.9985 10.7648 19.0595 10.753 19.12 10.7332C19.2421 10.6969 19.368 10.6704 19.49 10.6408C19.5506 10.6242 19.6158 10.6119 19.677 10.5995C19.7379 10.5877 19.8034 10.5729 19.8644 10.5607C19.9274 10.549 19.9903 10.539 20.0539 10.5242L20.1463 10.5076L20.2381 10.4952C20.3042 10.4854 20.3645 10.4756 20.4281 10.4663C20.4985 10.4539 20.5689 10.4491 20.6398 10.4367C20.6977 10.4299 20.7927 10.4175 20.8512 10.4101C20.8975 10.4078 20.9413 10.4004 20.987 10.3977L21.0768 10.3886L21.1231 10.3862L21.1743 10.3836C21.2447 10.3812 21.3156 10.3738 21.3885 10.3712L21.495 10.3638H21.5242L21.5703 10.3614C21.6315 10.359 21.6919 10.354 21.7529 10.3517C21.9935 10.3449 22.2339 10.3449 22.4752 10.3517C22.9536 10.3712 23.4229 10.4226 23.88 10.51C24.7915 10.6804 25.6494 10.9719 26.4272 11.3581C27.2049 11.7374 27.9031 12.2067 28.5058 12.7143C28.5445 12.7465 28.5784 12.7805 28.6173 12.8117C28.6537 12.8433 28.6931 12.8773 28.727 12.9092C28.7999 12.9747 28.8702 13.0407 28.9411 13.1059C29.0115 13.1714 29.0793 13.2373 29.1478 13.3052C29.2154 13.3737 29.2834 13.4414 29.3445 13.5069C29.6023 13.7796 29.8404 14.0539 30.0518 14.3315C30.4818 14.8828 30.8271 15.4446 31.0997 15.9697C31.1138 16.001 31.1336 16.0349 31.1504 16.0695C31.1676 16.1009 31.1818 16.1348 31.1992 16.1687C31.2305 16.2347 31.2644 16.2977 31.2916 16.3613C31.3205 16.4265 31.352 16.4894 31.3791 16.5506C31.4082 16.6135 31.4321 16.677 31.4593 16.7375C31.5612 16.9853 31.656 17.2191 31.7289 17.4424C31.8553 17.8001 31.9477 18.1232 32.0181 18.4076C32.0476 18.5192 32.1542 18.5951 32.2684 18.5851C32.3876 18.5753 32.48 18.4755 32.4827 18.3564C32.4676 18.0357 32.4634 17.6835 32.4265 17.277Z" fill="white"/>
</mask>
<g mask="url(#mask0_22_721)">
<path d="M32.4827 4.09961H4.97058V33.9651H32.4827V4.09961Z" fill="url(#paint0_linear_22_721)"/>
</g>
<defs>
<linearGradient id="paint0_linear_22_721" x1="18.7266" y1="30.5579" x2="18.7266" y2="6.82037" gradientUnits="userSpaceOnUse">
<stop stop-color="#F35A28"/>
<stop offset="1" stop-color="#FBD107"/>
</linearGradient>
</defs>
</svg>
