<svg width="38" height="37" viewBox="0 0 38 37" fill="none" xmlns="http://www.w3.org/2000/svg">
<path d="M32.9336 7.5181C31.8537 7.47293 30.8076 7.89523 30.0598 8.67434L27.4028 11.3301V4.35853C27.4006 1.95342 25.4486 0.00225497 23.0424 0H4.36041C1.95426 0.00225827 0.00225594 1.95342 0 4.35853V27.8425C0 28.1496 0.122002 28.4432 0.338891 28.66L8.34357 36.6613C8.56046 36.8781 8.85416 37 9.16145 37H23.0424C25.4485 36.9977 27.4006 35.0466 27.4028 32.6415V22.9197L35.8569 14.4693C37.4225 12.8659 37.3955 10.3028 35.7981 8.73321C35.039 7.96992 34.0113 7.53394 32.9336 7.5181ZM19.8843 27.1651L17.3969 27.1289L17.3607 24.6403L28.569 13.4391L31.0949 15.9617L19.8843 27.1651ZM8.00746 33.0567L3.94532 28.9963H5.96285C7.09247 28.9963 8.00752 29.9109 8.00752 31.0401L8.00746 33.0567ZM25.0897 32.6412C25.0897 33.7703 24.1725 34.685 23.0428 34.6872H10.3209V31.0401C10.3186 28.635 8.36889 26.6861 5.96274 26.6838H2.31402V4.35839C2.31628 3.22926 3.23126 2.31461 4.36094 2.31235H23.043C24.1726 2.31461 25.0899 3.2292 25.0899 4.35839V13.6425L15.3773 23.3509C15.1559 23.5722 15.0339 23.8726 15.0384 24.1865L15.0994 28.2876V28.2853C15.1061 28.9108 15.6122 29.4167 16.2381 29.4258L20.3386 29.4845H20.3567C20.6639 29.4845 20.9577 29.3625 21.1746 29.1457L25.0899 25.2321L25.0897 32.6412ZM34.2216 12.8312L32.726 14.3262L30.2001 11.8036L31.698 10.3087C32.0008 9.96992 32.4458 9.79152 32.8999 9.82992C33.3744 9.83669 33.8285 10.0309 34.1629 10.3696C34.8565 11.0336 34.8836 12.1357 34.2216 12.8312Z" fill="#A3C3F8"/>
</svg>
