<svg width="36" height="34" viewBox="0 0 36 34" fill="none" xmlns="http://www.w3.org/2000/svg">
<path d="M18.8444 0.12444L34.8753 8.2736C35.4436 8.56091 35.6729 9.2583 35.3862 9.8303C35.2689 10.0602 35.0891 10.2351 34.8753 10.3422L29.0599 13.2989L34.3045 15.9657C34.8753 16.253 35.1047 16.9504 34.818 17.5224C34.7007 17.7522 34.5182 17.9272 34.3045 18.0343L28.4916 20.991L33.7388 23.6552C34.3071 23.9451 34.5364 24.6425 34.2497 25.2118C34.1324 25.4417 33.9526 25.6167 33.7388 25.7238L17.7079 33.8756C17.3665 34.0479 16.9833 34.0349 16.6653 33.8756L0.637016 25.7238C0.0661601 25.4365 -0.163225 24.7391 0.123506 24.1671C0.240805 23.9372 0.423271 23.7622 0.637016 23.6552L6.44984 20.7011L1.20526 18.0343C0.634409 17.747 0.405024 17.0496 0.691755 16.4776C0.809054 16.2478 0.991519 16.0728 1.20526 15.9657L7.02069 13.009L1.77351 10.3422C1.20526 10.0523 0.975879 9.35494 1.26261 8.78554C1.3773 8.55569 1.55977 8.38069 1.77351 8.2736L17.8018 0.12444C18.1432 -0.0479457 18.529 -0.0348862 18.8444 0.12444ZM18.2762 26.1809L18.2605 26.1887L18.2475 26.1965H18.2449L18.2319 26.2018L18.2162 26.2096L18.2136 26.2122L18.2006 26.2148L18.1954 26.2174L18.1876 26.2227L18.1797 26.2253L18.1537 26.2331L18.1485 26.2383H18.1406L18.125 26.2462L18.1146 26.2488H18.1094L18.0989 26.254H18.0937L18.0807 26.2592H18.0755L18.065 26.2645H18.0598L18.0155 26.2775H18.0129L17.9816 26.2827H17.979L17.9478 26.2906H17.9321V26.2932H17.9139L17.8982 26.2958V26.2984H17.8643V26.301H17.8487L17.8305 26.3036H17.7966L17.7809 26.3062H17.7288L17.7158 26.3036H17.6793L17.6636 26.301H17.648V26.2984H17.6141V26.2958L17.5959 26.2932H17.5802V26.2906H17.5646L17.5307 26.2827L17.515 26.2801H17.5124L17.4994 26.2775H17.4968L17.4499 26.2645H17.4473L17.4342 26.2592H17.429L17.4186 26.254H17.4134L17.403 26.2488H17.3977L17.3873 26.2462L17.3795 26.2436L17.3717 26.2383H17.3639L17.356 26.2331L17.33 26.2253L17.3091 26.2148L17.2987 26.2122L17.2961 26.2096L17.2804 26.2018L17.2674 26.1965H17.2648L17.2518 26.1887H17.2492L17.2335 26.1809L9.00696 21.9992L3.71286 24.6895L17.1866 31.5405L30.6604 24.6895L25.9345 22.2891L18.2762 26.1809ZM26.5028 14.597L18.8444 18.4888C18.7271 18.5489 18.6072 18.5854 18.4821 18.6037L18.4482 18.6063L18.4169 18.6089V18.6115H18.3674L18.3648 18.6142H18.3492L18.2501 18.6115H18.2475L18.2162 18.6089L18.198 18.6063H18.1823L18.1641 18.6037L18.1172 18.5959H18.1146L18.1015 18.5933L18.0989 18.5907L18.0833 18.588H18.0807L18.0677 18.5854H18.065L18.052 18.5802H18.0494L18.0364 18.5776H18.0312L18.0181 18.5724H18.0155L18.0025 18.5698L17.9973 18.5671L17.9868 18.5645L17.9816 18.5619L17.9712 18.5593L17.966 18.5567L17.9556 18.5541L17.9243 18.5436L17.9165 18.5384L17.893 18.5306L17.8826 18.5254H17.8774L17.8669 18.5201L17.8643 18.5175L17.8513 18.5123H17.8487L17.8357 18.5045H17.8331L17.82 18.4966H17.8174L17.8018 18.4888L15.2785 17.2063L9.57781 14.3097L4.28371 17L9.51264 19.6589L9.52828 19.6668L17.7549 23.8484L25.4132 19.9541L25.4288 19.9462L31.2286 17L26.5028 14.597ZM15.9224 14.934L18.3231 16.1564L25.9814 12.262L25.9971 12.2542L26.0153 12.2463L26.031 12.2385L31.7969 9.30792L18.3231 2.45949L4.85196 9.30792L15.9224 14.934Z" fill="#A3C3F8"/>
</svg>
