<svg width="29" height="40" viewBox="0 0 29 40" fill="none" xmlns="http://www.w3.org/2000/svg">
<path d="M14.5009 40H4.47349C3.24291 40 2.12331 39.5014 1.3138 38.6969C0.504296 37.8941 0 36.7836 0 35.5631V4.43689C0 3.21639 0.502667 2.10594 1.3138 1.30305C2.12331 0.500171 3.24291 0 4.47349 0H18.5336C18.8339 0 19.1049 0.126261 19.2958 0.32698L28.6932 9.64748C28.8972 9.84982 28.9984 10.1137 28.9984 10.3791L29 35.5617C29 36.7822 28.4973 37.8927 27.6862 38.6956C26.8767 39.4984 25.7571 39.9986 24.5265 39.9986H14.5007L14.5009 40ZM6.93481 15.7792C6.35869 15.7792 5.89028 15.3146 5.89028 14.7432C5.89028 14.1718 6.35869 13.7073 6.93481 13.7073H14.5009C15.077 13.7073 15.5454 14.1718 15.5454 14.7432C15.5454 15.3146 15.077 15.7792 14.5009 15.7792H6.93481ZM26.9111 11.4186H21.9626C20.732 11.4186 19.6124 10.92 18.8029 10.1155C17.9934 9.31263 17.4891 8.20218 17.4891 6.98167V2.07362H4.47349C3.81903 2.07362 3.22169 2.33908 2.79084 2.76805C2.35833 3.19703 2.09068 3.78783 2.09068 4.43693V35.5631C2.09068 36.2122 2.35834 36.8047 2.79084 37.232C3.22336 37.661 3.81903 37.9265 4.47349 37.9265H24.5267C25.1811 37.9265 25.7785 37.661 26.2093 37.232C26.6418 36.803 26.9095 36.2122 26.9095 35.5631V11.4165L26.9111 11.4186ZM19.5781 3.53849V6.98151C19.5781 7.63061 19.8458 8.22307 20.2783 8.65039C20.7108 9.07937 21.3065 9.34482 21.961 9.34482H25.4324L19.5764 3.53671L19.5781 3.53849ZM6.93439 32.4295C6.35827 32.4295 5.88986 31.9649 5.88986 31.3935C5.88986 30.8221 6.35827 30.3575 6.93439 30.3575H22.067C22.6432 30.3575 23.1116 30.8221 23.1116 31.3935C23.1116 31.9649 22.6432 32.4295 22.067 32.4295H6.93439ZM6.93439 26.8804C6.35827 26.8804 5.88986 26.4158 5.88986 25.8444C5.88986 25.273 6.35827 24.8084 6.93439 24.8084H22.067C22.6432 24.8084 23.1116 25.273 23.1116 25.8444C23.1116 26.4158 22.6432 26.8804 22.067 26.8804H6.93439ZM6.93439 21.3296C6.35827 21.3296 5.88986 20.865 5.88986 20.2936C5.88986 19.7222 6.35827 19.2576 6.93439 19.2576H22.067C22.6432 19.2576 23.1116 19.7222 23.1116 20.2936C23.1116 20.865 22.6432 21.3296 22.067 21.3296H6.93439Z" fill="#A3C3F8"/>
</svg>
