<svg width="285" height="62" viewBox="0 0 285 62" fill="none" xmlns="http://www.w3.org/2000/svg">
<path fill-rule="evenodd" clip-rule="evenodd" d="M39.2159 0.0485755C38.4369 -0.156915 37.6389 0.308458 37.4337 1.0877C37.2285 1.86691 37.6937 2.66503 38.4728 2.87034C39.2519 3.07552 40.0498 2.61023 40.255 1.83099C40.4603 1.05174 39.995 0.253798 39.2159 0.0485755Z" fill="#C9E1FA"/>
<path fill-rule="evenodd" clip-rule="evenodd" d="M36.4204 7.81344C35.261 7.5078 34.0736 8.20022 33.7683 9.35981C33.4628 10.5194 34.155 11.7071 35.3144 12.0125C36.4737 12.318 37.6611 11.6257 37.9665 10.4661C38.272 9.30649 37.5797 8.11904 36.4204 7.81344Z" fill="#A3C3F8"/>
<path fill-rule="evenodd" clip-rule="evenodd" d="M28.9501 11.925C27.4107 11.5191 25.8338 12.4388 25.4282 13.9787C25.0226 15.5185 25.9421 17.0956 27.4817 17.5013C29.0212 17.9069 30.598 16.9874 31.0036 15.4475C31.4091 13.9076 30.4897 12.3305 28.9501 11.925Z" fill="#7DA6F6"/>
<path fill-rule="evenodd" clip-rule="evenodd" d="M20.0563 11.6293C18.1365 11.1233 16.1703 12.27 15.6645 14.1903C15.1588 16.1105 16.3051 18.0771 18.225 18.583C20.1449 19.0888 22.1112 17.9423 22.6168 16.022C23.1225 14.1017 21.9763 12.1351 20.0563 11.6293Z" fill="#5688F4"/>
<path fill-rule="evenodd" clip-rule="evenodd" d="M11.8581 7.41274C9.55809 6.8066 7.20237 8.18031 6.59657 10.4811C5.99048 12.7816 7.36401 15.1377 9.66426 15.7438C11.9642 16.3498 14.3199 14.9761 14.9258 12.6754C15.5316 10.3749 14.1584 8.01874 11.8581 7.41274Z" fill="#306AF2"/>
<path fill-rule="evenodd" clip-rule="evenodd" d="M22.0508 61.2307C22.8299 61.436 23.6276 60.9706 23.833 60.1914C24.0382 59.4122 23.573 58.614 22.794 58.4088C22.0149 58.2036 21.2169 58.6689 21.0117 59.4481C20.8065 60.2273 21.2717 61.0255 22.0508 61.2307Z" fill="#C9E1FA"/>
<path fill-rule="evenodd" clip-rule="evenodd" d="M24.8463 53.4658C26.0057 53.7712 27.1929 53.0788 27.4984 51.9191C27.8039 50.7596 27.1117 49.5719 25.9523 49.2665C24.793 48.961 23.6055 49.6534 23.3001 50.813C22.9948 51.9726 23.687 53.1602 24.8463 53.4658Z" fill="#A3C3F8"/>
<path fill-rule="evenodd" clip-rule="evenodd" d="M32.3163 49.3545C33.856 49.7603 35.4327 48.8406 35.8384 47.3008C36.2438 45.7608 35.3245 44.1836 33.7849 43.7779C32.2455 43.3724 30.6686 44.2918 30.263 45.8318C29.8574 47.3716 30.7768 48.9488 32.3163 49.3545Z" fill="#7DA6F6"/>
<path fill-rule="evenodd" clip-rule="evenodd" d="M41.2103 49.65C43.1302 50.1559 45.0965 49.0092 45.6022 47.0891C46.1079 45.1687 44.9616 43.202 43.0417 42.6962C41.1218 42.1903 39.1555 43.3369 38.6498 45.2572C38.144 47.1775 39.2905 49.1442 41.2103 49.65Z" fill="#5688F4"/>
<path fill-rule="evenodd" clip-rule="evenodd" d="M49.4085 53.867C51.7087 54.473 54.0644 53.0991 54.6702 50.7986C55.2761 48.4979 53.9028 46.1417 51.6026 45.5357C49.3025 44.9298 46.9468 46.3033 46.3408 48.604C45.7349 50.9046 47.1085 53.2608 49.4085 53.867Z" fill="#306AF2"/>
<path fill-rule="evenodd" clip-rule="evenodd" d="M61.2182 39.2241C61.4234 38.4449 60.9581 37.6468 60.1791 37.4416C59.4 37.2363 58.6021 37.7017 58.3969 38.4809C58.1917 39.2601 58.6569 40.0582 59.4359 40.2635C60.215 40.4688 61.0128 40.0034 61.2182 39.2241Z" fill="#C9E1FA"/>
<path fill-rule="evenodd" clip-rule="evenodd" d="M53.4544 36.428C53.76 35.2684 53.0677 34.0807 51.9084 33.7753C50.749 33.4698 49.5617 34.1621 49.2563 35.3217C48.9508 36.4814 49.6431 37.669 50.8024 37.9744C51.9618 38.28 53.149 37.5876 53.4544 36.428Z" fill="#A3C3F8"/>
<path fill-rule="evenodd" clip-rule="evenodd" d="M49.3445 28.9565C49.7501 27.4166 48.8307 25.8394 47.2912 25.4337C45.7516 25.0282 44.1747 25.9476 43.7691 27.4876C43.3637 29.0274 44.2829 30.6045 45.8226 31.0102C47.362 31.4159 48.9389 30.4963 49.3445 28.9565Z" fill="#7DA6F6"/>
<path fill-rule="evenodd" clip-rule="evenodd" d="M49.6396 20.0603C50.1456 18.1399 48.9991 16.1732 47.0794 15.6673C45.1594 15.1615 43.1932 16.308 42.6875 18.2284C42.1817 20.1487 43.328 22.1154 45.2479 22.621C47.1679 23.1271 49.1339 21.9804 49.6396 20.0603Z" fill="#5688F4"/>
<path fill-rule="evenodd" clip-rule="evenodd" d="M53.8554 11.8606C54.4615 9.55988 53.088 7.20367 50.7879 6.59775C48.4877 5.99175 46.132 7.36532 45.5262 9.66603C44.9204 11.9665 46.2936 14.3228 48.5938 14.9288C50.8939 15.5349 53.2496 14.1612 53.8554 11.8606Z" fill="#306AF2"/>
<path fill-rule="evenodd" clip-rule="evenodd" d="M0.0484767 22.0556C-0.156752 22.8348 0.308516 23.633 1.0876 23.8382C1.86661 24.0435 2.6646 23.5781 2.86983 22.7989C3.07498 22.0197 2.60979 21.2215 1.83071 21.0162C1.05162 20.811 0.253857 21.2763 0.0484767 22.0556Z" fill="#C9E1FA"/>
<path fill-rule="evenodd" clip-rule="evenodd" d="M7.81195 24.8512C7.50641 26.0107 8.19867 27.1983 9.35803 27.5039C10.5174 27.8093 11.7048 27.1169 12.0101 25.9572C12.3157 24.7977 11.6234 23.61 10.464 23.3046C9.30468 22.9991 8.11748 23.6916 7.81195 24.8512Z" fill="#A3C3F8"/>
<path fill-rule="evenodd" clip-rule="evenodd" d="M11.9225 32.3234C11.5169 33.8634 12.4363 35.4405 13.9757 35.846C15.5154 36.2517 17.0922 35.3323 17.4978 33.7923C17.9032 32.2523 16.984 30.6752 15.4444 30.2697C13.9049 29.864 12.3281 30.7834 11.9225 32.3234Z" fill="#7DA6F6"/>
<path fill-rule="evenodd" clip-rule="evenodd" d="M11.6271 41.2193C11.1212 43.1395 12.2677 45.1061 14.1874 45.612C16.1073 46.1176 18.0736 44.9711 18.5793 43.0507C19.085 41.1306 17.9388 39.1639 16.0188 38.6581C14.0989 38.1522 12.1329 39.299 11.6271 41.2193Z" fill="#5688F4"/>
<path fill-rule="evenodd" clip-rule="evenodd" d="M7.41137 49.4195C6.80535 51.72 8.1788 54.0763 10.4788 54.6822C12.7791 55.2882 15.1347 53.9146 15.7406 51.6139C16.3465 49.3134 14.9732 46.9572 12.6729 46.3512C10.3729 45.745 8.01724 47.1189 7.41137 49.4195Z" fill="#306AF2"/>
<path fill-rule="evenodd" clip-rule="evenodd" d="M172.352 17.614C172.352 15.9272 173.72 14.5596 175.406 14.5596C177.093 14.5596 178.46 15.9272 178.46 17.614V51.4954C178.46 53.1822 177.093 54.5497 175.406 54.5497C173.72 54.5497 172.352 53.1822 172.352 51.4954V17.614Z" fill="#306AF2"/>
<path fill-rule="evenodd" clip-rule="evenodd" d="M159.136 12.8388C157.466 12.8388 156.113 11.4712 156.113 9.7843C156.113 8.09747 157.466 6.72998 159.136 6.72998H191.677C193.347 6.72998 194.7 8.09747 194.7 9.7843C194.7 11.4712 193.347 12.8388 191.677 12.8388H159.136Z" fill="#306AF2"/>
<path fill-rule="evenodd" clip-rule="evenodd" d="M106.459 9.78439C106.459 8.09752 107.826 6.72998 109.513 6.72998C111.199 6.72998 112.566 8.09752 112.566 9.78439V51.4959C112.566 53.1827 111.199 54.5503 109.513 54.5503C107.826 54.5503 106.459 53.1827 106.459 51.4959V9.78439Z" fill="#306AF2"/>
<path fill-rule="evenodd" clip-rule="evenodd" d="M117.242 12.8388C115.556 12.8388 114.189 11.4712 114.189 9.7843C114.189 8.09747 115.556 6.72998 117.242 6.72998H127.835C131.591 6.72998 135.003 8.2645 137.475 10.7371C139.947 13.2096 141.481 16.6225 141.481 20.3793V22.8608C141.481 26.6176 139.947 30.0305 137.475 32.503C135.003 34.9755 131.591 36.5102 127.835 36.5102H117.242C115.556 36.5102 114.189 35.1426 114.189 33.4557C114.189 31.7688 115.556 30.4013 117.242 30.4013H127.835C129.905 30.4013 131.789 29.5521 133.157 28.1841C134.525 26.8162 135.374 24.9315 135.374 22.8608V20.3793C135.374 18.3085 134.525 16.4239 133.157 15.0559C131.789 13.688 129.905 12.8388 127.835 12.8388H117.242Z" fill="#306AF2"/>
<path fill-rule="evenodd" clip-rule="evenodd" d="M101.783 6.72998C103.469 6.72998 104.836 8.09747 104.836 9.7843C104.836 11.4712 103.469 12.8388 101.783 12.8388H91.1901C89.1198 12.8388 87.2356 13.688 85.8679 15.0559C84.5002 16.4239 83.6512 18.3085 83.6512 20.3793V22.8608C83.6512 24.9313 84.5002 26.8162 85.8679 28.1841C87.2356 29.5519 89.12 30.4013 91.1901 30.4013H101.783C103.469 30.4013 104.836 31.7688 104.836 33.4557C104.836 35.1426 103.469 36.5102 101.783 36.5102H91.1901C87.4343 36.5102 84.0217 34.9751 81.5499 32.503C79.0779 30.0305 77.5436 26.6171 77.5436 22.8608V20.3793C77.5436 16.6225 79.0779 13.2096 81.5499 10.7371C84.0219 8.2645 87.4341 6.72998 91.1901 6.72998H101.783Z" fill="#306AF2"/>
<path fill-rule="evenodd" clip-rule="evenodd" d="M238.617 11.0726C237.458 9.85355 237.506 7.92509 238.725 6.7655C239.943 5.60587 241.871 5.65391 243.031 6.87294L284.161 50.2073C285.32 51.4263 285.272 53.3548 284.054 54.5144C282.835 55.674 280.907 55.626 279.747 54.407L238.617 11.0726Z" fill="#306AF2"/>
<path fill-rule="evenodd" clip-rule="evenodd" d="M198.643 9.78439C198.643 8.09752 200.011 6.72998 201.697 6.72998C203.384 6.72998 204.751 8.09752 204.751 9.78439V51.4959C204.751 53.1827 203.384 54.5503 201.697 54.5503C200.011 54.5503 198.643 53.1827 198.643 51.4959V9.78439Z" fill="#306AF2"/>
<path fill-rule="evenodd" clip-rule="evenodd" d="M209.379 12.8388C207.71 12.8388 206.356 11.4712 206.356 9.7843C206.356 8.09747 207.71 6.72998 209.379 6.72998H228.179C229.849 6.72998 231.202 8.09747 231.202 9.7843C231.202 11.4712 229.849 12.8388 228.179 12.8388H209.379Z" fill="#306AF2"/>
<path fill-rule="evenodd" clip-rule="evenodd" d="M209.379 54.5497C207.71 54.5497 206.356 53.1821 206.356 51.4953C206.356 49.8085 207.71 48.4409 209.379 48.4409H228.179C229.849 48.4409 231.202 49.8085 231.202 51.4953C231.202 53.1821 229.849 54.5497 228.179 54.5497H209.379Z" fill="#306AF2"/>
<path fill-rule="evenodd" clip-rule="evenodd" d="M209.379 33.6948C207.71 33.6948 206.356 32.3272 206.356 30.6404C206.356 28.9536 207.71 27.5859 209.379 27.5859H219.113C220.783 27.5859 222.137 28.9536 222.137 30.6404C222.137 32.3272 220.783 33.6948 219.113 33.6948H209.379Z" fill="#306AF2"/>
<path fill-rule="evenodd" clip-rule="evenodd" d="M229.231 29.1024C229.624 29.7772 229.76 30.6027 229.545 31.4181C229.33 32.2333 228.805 32.885 228.13 33.2788C227.455 33.6721 226.63 33.8079 225.815 33.5933C225 33.3787 224.348 32.8531 223.954 32.1776C223.561 31.5028 223.425 30.6772 223.64 29.8621C223.854 29.047 224.38 28.3953 225.055 28.0013C225.73 27.6081 226.555 27.4722 227.37 27.6869C228.185 27.9015 228.837 28.427 229.231 29.1024Z" fill="#306AF2"/>
<path fill-rule="evenodd" clip-rule="evenodd" d="M257.325 39.1962C258.485 37.9771 258.437 36.0487 257.218 34.889C255.999 33.7294 254.071 33.7774 252.912 34.9964L238.617 50.2071C237.458 51.4262 237.506 53.3546 238.724 54.5143C239.943 55.6738 241.871 55.6259 243.031 54.4068L257.325 39.1962Z" fill="#306AF2"/>
<path fill-rule="evenodd" clip-rule="evenodd" d="M284.161 11.0726C285.32 9.85355 285.272 7.92509 284.053 6.7655C282.834 5.60587 280.906 5.65391 279.747 6.87294L265.269 22.1753C264.11 23.3943 264.158 25.3227 265.377 26.4823C266.595 27.6419 268.523 27.594 269.683 26.3749L284.161 11.0726Z" fill="#306AF2"/>
</svg>
