<svg width="36" height="36" viewBox="0 0 36 36" fill="none" xmlns="http://www.w3.org/2000/svg">
<path fill-rule="evenodd" clip-rule="evenodd" d="M18.0001 0C27.9412 0 36 8.05888 36 17.9999C36 27.9411 27.9412 36 18.0001 36C8.05888 36 0 27.9411 0 17.9999C1.6714e-07 8.05888 8.05888 0 18.0001 0Z" fill="#EBECEC"/>
<path d="M33.024 21.9071C28.9682 22.7431 28.6886 21.3699 28.6886 21.3699C32.972 15.0161 34.7601 6.94818 33.215 4.97446C29.002 -0.410373 21.706 2.13627 21.5844 2.20258L21.5428 2.20832C20.7426 2.04265 19.846 1.94263 18.8379 1.926C17.0026 1.89562 15.6097 2.40784 14.5552 3.208C14.5552 3.208 1.53947 -2.15512 2.14605 9.95183C2.27646 12.5272 5.83641 29.4372 10.0863 24.3296C11.6394 22.4608 13.1404 20.8823 13.1404 20.8823C13.8848 21.3779 14.7791 21.6304 15.712 21.5385L15.7845 21.4776C15.7622 21.7103 15.7733 21.9374 15.8118 22.2058C14.7182 23.4296 15.0397 23.6429 12.8496 24.0939C10.6346 24.5509 11.9359 25.3623 12.7857 25.5749C13.8159 25.8329 16.1969 26.1983 17.8084 23.9444L17.7445 24.2018C18.1736 24.5453 18.4752 26.4364 18.4255 28.1501C18.3758 29.864 18.3423 31.0405 18.6804 31.9598C19.0178 32.879 19.3558 34.9467 22.2325 34.3297C24.6354 33.8148 25.8813 32.4801 26.0557 30.2542C26.1773 28.6707 26.457 28.9057 26.4738 27.4909L26.6983 26.8211C26.9556 24.6757 26.7399 23.9834 28.221 24.3042L28.5807 24.3353C29.6717 24.3847 31.0977 24.1602 31.9337 23.7701C33.7305 22.9364 34.8016 21.5385 33.024 21.9071Z" fill="#336790"/>
<path d="M17.4816 23.1225C17.4897 22.8454 17.7196 22.6263 17.9964 22.635C18.273 22.6431 18.4918 22.8731 18.4839 23.1499C18.4255 25.2071 18.4367 27.2694 18.5111 28.9198C18.5806 30.4066 18.6997 31.525 18.866 31.9404C19.0428 32.3802 19.317 33.0308 19.8427 33.4712C20.3552 33.9029 21.144 34.1659 22.4012 33.8979C23.5003 33.6622 24.2396 33.3272 24.7322 32.815C25.2197 32.3082 25.4963 31.5912 25.668 30.5889C25.7951 29.8582 25.9702 28.5818 26.1277 27.3109C26.3268 25.7219 26.5098 24.1161 26.5489 23.5982C26.5679 23.3216 26.8087 23.1137 27.0859 23.1361C27.3627 23.1553 27.5703 23.396 27.548 23.6733C27.5095 24.177 27.3266 25.8019 27.1189 27.4388C26.9526 28.7505 26.7758 30.0518 26.6537 30.7583C26.4459 31.9567 26.0949 32.8398 25.4492 33.5102C24.8072 34.1771 23.9073 34.5981 22.6034 34.8779C20.9834 35.2241 19.9147 34.8445 19.1922 34.2353C18.4807 33.6376 18.1433 32.8455 17.9299 32.3114C17.7196 31.788 17.5783 30.553 17.5039 28.9614C17.4319 27.2974 17.4232 25.2071 17.4816 23.1225Z" fill="white"/>
<path d="M14.7183 2.65413C14.9758 2.75629 15.1005 3.04729 14.9981 3.30464C14.8957 3.56213 14.6049 3.68666 14.3474 3.5845C14.3139 3.57 2.04933 -1.44089 2.61692 9.87739C2.68563 11.2754 3.79348 16.9952 5.47674 20.9847C6.00846 22.2419 6.59267 23.316 7.21274 24.0027C7.73064 24.5783 8.2591 24.8556 8.76845 24.6726C9.05118 24.5703 9.35266 24.3407 9.67151 23.9587C11.23 22.0843 12.6475 20.6026 12.6529 20.6C12.844 20.4009 13.1597 20.3923 13.3588 20.5833C13.5586 20.7743 13.5667 21.0901 13.3754 21.2892C13.373 21.2922 11.9887 22.7348 10.4412 24.598C10.0008 25.1296 9.55245 25.459 9.10086 25.6196C8.14311 25.9601 7.26242 25.5614 6.46553 24.6757C5.76774 23.9028 5.1251 22.7318 4.55511 21.3722C2.82459 17.278 1.68655 11.3753 1.61457 9.9244C0.969523 -2.96662 14.68 2.63723 14.7183 2.65413Z" fill="white"/>
<path d="M21.8304 2.57653L21.0863 1.76281C21.1471 1.74051 21.2078 1.72121 21.2686 1.70459C21.4325 1.6519 21.609 1.59915 21.8001 1.54399C22.0799 1.46086 22.49 1.35295 22.991 1.25606C25.4907 0.771614 30.3694 0.508857 33.5834 4.61716C34.4915 5.77703 34.4171 8.6482 33.478 12.0482C32.6476 15.0577 31.1497 18.5267 29.0787 21.5994C28.9242 21.8296 28.6111 21.8902 28.3816 21.7353C28.1514 21.5801 28.0905 21.2674 28.2457 21.0375C30.2558 18.0561 31.7065 14.6917 32.5124 11.7798C33.3701 8.67291 33.506 6.13982 32.7944 5.23175C29.9097 1.5464 25.4602 1.7956 23.1765 2.24179C22.7081 2.3328 22.3348 2.42949 22.0799 2.50455L21.8304 2.57653Z" fill="white"/>
<path d="M33.0961 22.3476C30.447 22.8953 29.212 22.494 28.6447 22.0625C28.567 22.0873 28.484 22.1095 28.3952 22.1343C28.0412 22.2343 27.4898 22.3892 27.548 23.5795C27.5896 23.6234 27.7447 23.6708 27.9716 23.7178C28.3344 23.7897 28.7995 23.8066 29.2951 23.7786C30.1617 23.7289 31.0946 23.5436 31.69 23.2668C32.3016 22.9814 32.8138 22.6379 33.1295 22.339L33.0961 22.3476ZM29.1372 21.1656C29.1427 21.1792 29.1457 21.1927 29.1484 21.2072C29.1484 21.2096 29.3201 22.1039 32.8946 21.3678C33.4006 21.2624 33.761 21.2847 33.9936 21.3983C34.2949 21.542 34.4253 21.7828 34.4061 22.0928C34.3949 22.2808 34.306 22.483 34.1593 22.6854C33.8219 23.1479 33.0495 23.7459 32.1106 24.1807C31.4071 24.5069 30.336 24.726 29.353 24.7811C28.7742 24.8147 28.2211 24.7923 27.7806 24.7035C27.2268 24.5932 26.8063 24.363 26.6318 23.9898C26.5848 23.8898 26.5568 23.7819 26.5513 23.6653C26.4409 21.7221 27.3874 21.3816 28.0493 21.1929C27.9797 21.0939 27.8861 20.9748 27.7806 20.8444C27.4456 20.4264 27.0165 19.8892 26.676 19.0668C26.6233 18.942 26.4712 18.6655 26.266 18.3003C25.3995 16.7472 23.694 13.6851 24.0294 11.5941C24.267 10.1018 25.405 9.11063 28.2482 9.40711L28.2211 9.32418C28.0852 8.93949 27.8692 8.43541 27.5561 7.8709C26.3163 5.61125 23.6114 2.4611 18.8075 2.38364C11.4788 2.26458 11.7202 11.5061 11.7202 11.5308C11.7256 11.8076 11.5042 12.0345 11.227 12.04C10.9504 12.0456 10.7235 11.8242 10.7178 11.5476C10.7178 11.5166 10.4461 1.2454 18.8214 1.38122C24.1094 1.46676 27.0774 4.91666 28.4337 7.38638C28.7718 8.00037 29.0125 8.55988 29.165 8.99458C29.3367 9.4821 29.4 9.86432 29.3729 10.033C29.3337 10.2823 29.1954 10.4373 28.9571 10.4844L28.7772 10.487C26.1693 10.0688 25.1836 10.7084 25.0175 11.7498C24.7376 13.502 26.3323 16.3593 27.1413 17.8127C27.3594 18.2059 27.5257 18.5047 27.6007 18.6877C27.8885 19.3824 28.265 19.8533 28.5584 20.2242C28.8326 20.559 29.0483 20.8306 29.1372 21.1656Z" fill="white"/>
<path d="M14.8486 22.4969C14.9845 22.325 15.1421 22.126 15.3801 21.8573C15.3994 21.832 15.4217 21.807 15.4433 21.7853C15.8118 21.3866 16.1634 21.237 16.4873 21.2092C16.8085 21.1812 17.0579 21.2731 17.2682 21.3617C17.2768 21.3643 17.2848 21.3674 17.296 21.3722C17.4041 21.4171 17.5093 21.4776 17.6117 21.5496C17.941 21.7853 18.2121 22.1588 18.3592 22.5656C18.5086 22.9892 18.5333 23.4631 18.3561 23.8837C18.3119 23.9891 18.2568 24.0882 18.1874 24.1856C17.2905 25.4422 16.1716 25.9682 15.1364 26.1457C14.1205 26.3198 13.1956 26.1511 12.6363 26.0128C12.2293 25.91 11.7256 25.6836 11.4291 25.4063C11.255 25.2431 11.1359 25.049 11.1025 24.8333C11.0639 24.5758 11.1414 24.3265 11.3764 24.1051C11.6035 23.8917 12.0248 23.6981 12.7192 23.5544C14.2668 23.2356 14.4058 23.0612 14.8486 22.4969ZM16.1554 22.4936C15.9501 22.7238 15.7814 22.9365 15.6375 23.1196C15.0228 23.9004 14.8318 24.1441 12.9247 24.5375C12.5809 24.6092 12.3483 24.6781 12.2046 24.7477C12.3818 24.8749 12.6474 24.9803 12.8801 25.0379C13.3507 25.1569 14.1316 25.2984 14.9677 25.1569C15.7814 25.0186 16.659 24.6007 17.3704 23.6038C17.3927 23.571 17.412 23.5351 17.4288 23.499C17.5008 23.3242 17.484 23.1058 17.412 22.8982C17.3345 22.6768 17.1938 22.4825 17.0299 22.3635C16.9914 22.3362 16.9524 22.3139 16.9109 22.2972L16.8862 22.286C16.7838 22.2451 16.6702 22.2004 16.5735 22.2085C16.4681 22.2197 16.3352 22.2914 16.1554 22.4936Z" fill="white"/>
<path d="M15.3027 21.0071C15.4106 20.5618 15.588 20.091 15.776 19.5842C15.9254 19.1853 15.5353 20.2293 15.8478 19.3845C15.8534 19.371 15.8589 19.3573 15.8646 19.3436C15.9613 19.0856 16.0668 18.8561 16.1746 18.6123C16.7453 17.3472 17.4704 15.7302 16.6424 11.899C16.4823 11.1542 16.0915 10.7719 15.604 10.6194C15.2388 10.5058 14.8095 10.5034 14.3697 10.5697C13.8991 10.6417 13.4282 10.7857 13.0072 10.9574C12.2685 11.2589 11.709 11.5139 11.709 11.5362C11.709 11.6082 11.7171 11.7711 11.7313 11.9902C11.781 12.8344 11.8777 14.4704 11.6202 16.3257C11.5707 16.6885 11.562 17.0401 11.5955 17.3775C11.6867 18.319 12.0799 19.1632 12.6641 19.8027C13.2398 20.4342 14.0014 20.8632 14.8375 20.9799C14.9924 20.996 15.1476 21.0071 15.3027 21.0071ZM16.2081 22.059C16.2491 22.3331 16.0613 22.5906 15.7871 22.6296C15.5129 22.6681 15.2555 22.4826 15.2171 22.2086C15.206 22.1421 15.2003 22.0758 15.1948 22.0069C15.0286 22.0014 14.8653 21.9903 14.7047 21.9653C13.6306 21.8158 12.6587 21.2732 11.9278 20.4699C11.2047 19.6785 10.7178 18.6316 10.6043 17.4635C10.5627 17.0481 10.5708 16.6163 10.6323 16.1815C10.8784 14.4262 10.7841 12.8566 10.7371 12.0428C10.7235 11.8214 10.7147 11.6551 10.7147 11.5273C10.7178 11.198 11.5458 10.4729 12.6363 10.0245C13.1293 9.82233 13.6801 9.65299 14.2253 9.56986C14.8014 9.48432 15.3825 9.4924 15.9062 9.65607C16.7254 9.91342 17.3761 10.5201 17.6254 11.6798C18.5255 15.8356 17.7196 17.6211 17.0914 19.0193C16.9829 19.2604 16.8805 19.4875 16.803 19.6921C16.8004 19.7059 16.795 19.717 16.7893 19.7306C16.5263 20.4395 16.9109 19.4013 16.7118 19.9303C16.3991 20.783 16.125 21.5139 16.2081 22.059Z" fill="white"/>
<path d="M14.4859 11.461C14.4634 11.6247 14.7879 12.0645 15.2084 12.1227C15.6296 12.1811 15.9918 11.8374 16.0141 11.6744C16.0364 11.5112 15.7121 11.3282 15.2916 11.27C14.871 11.2122 14.5082 11.2978 14.4859 11.461Z" fill="white"/>
<path d="M14.5607 11.9457C14.397 11.7743 14.3058 11.5691 14.3226 11.4419V11.4362C14.3443 11.2787 14.4858 11.1708 14.7016 11.1181C14.8653 11.0792 15.0812 11.0711 15.3108 11.1015H15.3193C15.5519 11.135 15.7591 11.2013 15.9061 11.2844C16.0995 11.3922 16.2081 11.5387 16.1858 11.6938C16.1691 11.8159 16.0444 11.9927 15.8589 12.1174C15.6847 12.2365 15.4464 12.322 15.1891 12.2862H15.186C14.9318 12.2533 14.7127 12.1063 14.5607 11.9457ZM14.6519 11.4835C14.6464 11.5194 14.7047 11.6137 14.8014 11.7161C14.9095 11.8296 15.062 11.9318 15.2306 11.9568H15.233C15.3994 11.9791 15.5545 11.9237 15.6711 11.8432C15.779 11.7713 15.8453 11.6938 15.8534 11.6498C15.8534 11.641 15.8118 11.6161 15.7429 11.5778C15.6296 11.5139 15.4633 11.4612 15.2722 11.4338H15.2666C15.0781 11.4085 14.9038 11.4139 14.779 11.4443C14.7016 11.4643 14.6519 11.4778 14.6519 11.4835Z" fill="white"/>
<path d="M27.3433 11.1257C27.365 11.2889 27.0412 11.7292 26.6206 11.7876C26.197 11.8458 25.8366 11.5023 25.815 11.3391C25.7927 11.1754 26.1165 10.9929 26.5401 10.9347C26.958 10.8765 27.3184 10.9627 27.3433 11.1257Z" fill="white"/>
<path d="M27.0859 11.4392C27.1994 11.32 27.2658 11.1978 27.2572 11.137C27.2515 11.093 27.1795 11.0539 27.0693 11.026C26.9334 10.993 26.7479 10.9875 26.5457 11.0153C26.3465 11.0426 26.1693 11.101 26.0477 11.1674C25.9479 11.2225 25.8895 11.2809 25.8951 11.3249C25.9037 11.3864 25.9864 11.4886 26.114 11.5743C26.2444 11.663 26.4212 11.7268 26.6096 11.7019H26.6122C26.7975 11.6765 26.9669 11.563 27.0859 11.4392ZM27.4233 11.1146C27.4371 11.2201 27.354 11.4 27.2075 11.5551C27.0662 11.7046 26.8614 11.8405 26.6288 11.8707H26.6264C26.3938 11.9011 26.1774 11.8236 26.0173 11.7157C25.8512 11.6046 25.7431 11.4527 25.7265 11.3504C25.7096 11.2313 25.8009 11.1146 25.9645 11.0234C26.1028 10.946 26.2995 10.8821 26.521 10.8517C26.7424 10.8213 26.9502 10.8294 27.1052 10.8659C27.2877 10.9068 27.4066 10.993 27.4233 11.1146Z" fill="white"/>
<path d="M28.3505 10.0135C28.337 9.73629 28.5503 9.50104 28.8269 9.48749C29.1042 9.47326 29.3393 9.68661 29.353 9.96319C29.3945 10.7384 29.3009 11.3532 29.2009 11.9983C29.1258 12.4801 29.0483 12.9838 29.0322 13.5457C29.0156 14.0803 29.0845 14.6728 29.1595 15.2818C29.353 16.8852 29.5582 18.6013 28.3674 20.3758C28.2123 20.606 27.9022 20.6668 27.6727 20.5147C27.4425 20.3596 27.3817 20.0495 27.5344 19.8193C28.5145 18.3551 28.3313 16.8293 28.1596 15.4007C28.0828 14.7637 28.0077 14.1441 28.03 13.5183C28.0493 12.8702 28.1291 12.353 28.2068 11.8519C28.3009 11.2477 28.3871 10.6778 28.3505 10.0135Z" fill="white"/>
</svg>
