<svg width="36" height="36" viewBox="0 0 36 36" fill="none" xmlns="http://www.w3.org/2000/svg">
<path d="M17.9999 0C27.9412 0 36 8.05887 36 17.9999C36 27.9411 27.9412 36 17.9999 36C8.05864 36 0 27.9411 0 17.9999C0 8.05887 8.05864 0 17.9999 0Z" fill="#E6522B"/>
<path d="M24.3473 24H11.6426C11.6001 23.946 11.557 23.8918 11.5162 23.8371C10.2074 22.0625 9.89953 21.1362 9.60002 20.1922C9.59455 20.161 11.187 20.5554 12.3162 20.8387C12.3162 20.8387 12.8972 20.9891 13.7462 21.162C12.9308 20.0944 12.4469 18.738 12.4469 17.3514C12.4469 14.3066 14.5382 11.646 13.7836 9.49527C14.518 9.56253 15.3034 11.2257 15.3566 13.827C16.1371 12.6223 16.4639 10.4227 16.4639 9.07422C16.4639 7.67757 17.2883 6.0554 18.1125 6C17.3781 7.35248 18.3028 8.51148 19.1254 11.3872C19.4339 12.4674 19.3949 14.2855 19.6329 15.438C19.7116 13.0439 20.0809 9.54996 21.4412 8.34393C20.8408 9.86275 21.5297 11.7633 22.0013 12.677C22.7617 14.1517 23.2222 15.2685 23.2222 17.3809C23.2222 18.7973 22.7542 20.1307 21.9641 21.1732C22.8623 20.9851 23.4828 20.815 23.4828 20.815L26.4 20.1796C26.4 20.1796 25.9764 22.1258 24.3473 24Z" fill="#FEFEFE"/>
<path d="M25.2 26.4002H10.8V25.2002H25.2V26.4002Z" fill="#FEFEFE"/>
<path d="M16.8004 31.1998C14.1493 31.1998 12 30.125 12 28.7998H21.6C21.6 30.125 19.4509 31.1998 16.8004 31.1998Z" fill="#FEFEFE"/>
</svg>
