<svg width="36" height="34" viewBox="0 0 36 34" fill="none" xmlns="http://www.w3.org/2000/svg">
<path fill-rule="evenodd" clip-rule="evenodd" d="M18.0001 0C27.9411 0 36 7.52156 36 16.8001C36 26.0784 27.9411 33.6 18.0001 33.6C8.05887 33.6 0 26.0784 0 16.8001C0 7.52156 8.05887 0 18.0001 0Z" fill="#2B2A29"/>
<path fill-rule="evenodd" clip-rule="evenodd" d="M26.0566 19.3039C25.6366 19.4874 25.1754 19.6494 24.701 19.8033C24.4215 18.8343 24.0546 17.8252 23.5996 16.7932C24.0485 15.7649 24.4124 14.7621 24.6858 13.7968C25.17 13.9506 25.6292 14.1188 26.0602 14.3003C27.7931 15.0464 28.9122 16.0251 28.9122 16.8012C28.9085 17.5786 27.789 18.5618 26.0566 19.3039ZM24.1739 22.6019C24.4045 24.4911 24.1188 25.9598 23.459 26.3505C23.3123 26.4394 23.121 26.4791 22.8966 26.4791C21.8845 26.4791 20.3827 25.6633 18.7869 24.1753C19.4724 23.4485 20.156 22.6236 20.8066 21.7077C21.9121 21.5898 22.959 21.4062 23.9176 21.1634C24.0315 21.6626 24.1188 22.1422 24.1739 22.6019ZM12.5701 26.3683C11.9042 25.9834 11.6169 24.5145 11.8419 22.6262C11.8962 22.1621 11.9843 21.6726 12.0919 21.1732C13.0508 21.41 14.0976 21.5935 15.1971 21.7121C15.8573 22.6262 16.5429 23.4565 17.2325 24.1833C15.6367 25.6812 14.1403 26.5024 13.123 26.5024C12.9021 26.4963 12.7168 26.4531 12.5701 26.3683ZM9.93714 19.3039C8.20497 18.5574 7.08586 17.5786 7.08586 16.8032C7.08586 16.0269 8.20674 15.0426 9.93714 14.3023C10.3571 14.1188 10.8183 13.9568 11.2927 13.8029C11.5722 14.7719 11.9398 15.7804 12.3948 16.813C11.9452 17.8413 11.582 18.8436 11.3086 19.8088C10.8244 19.655 10.3634 19.4874 9.93714 19.3039ZM14.3655 13.114C14.1252 13.4946 13.8866 13.8857 13.6603 14.2861C13.4353 14.6812 13.2244 15.0777 13.0233 15.4727C12.7597 14.8096 12.5352 14.1484 12.3475 13.5044C12.9901 13.3508 13.6659 13.2184 14.3655 13.114ZM17.9847 10.2022C18.4396 10.6761 18.8945 11.2052 19.3439 11.7836C18.9043 11.7637 18.453 11.7476 17.9981 11.7476C17.5388 11.7476 17.0839 11.7576 16.6389 11.7836C17.0802 11.2052 17.5351 10.6761 17.9847 10.2022ZM14.3709 20.4897C13.6756 20.3854 13.0061 20.257 12.3652 20.0994C12.5468 19.4615 12.7714 18.8047 13.0251 18.1472C13.2263 18.5419 13.4353 18.9387 13.6659 19.3337C13.8963 19.7303 14.1306 20.1153 14.3709 20.4897ZM18.0097 23.4016C17.5548 22.9277 17.0998 22.3986 16.6505 21.8202C17.0901 21.8401 17.5407 21.8562 17.9963 21.8562C18.4549 21.8562 18.9099 21.8462 19.3555 21.8202C18.9141 22.3986 18.4593 22.9277 18.0097 23.4016ZM22.9706 18.1273C23.234 18.7905 23.459 19.4516 23.6462 20.0956C23.006 20.2532 22.3304 20.3873 21.6309 20.4897C21.8711 20.1091 22.1095 19.718 22.3358 19.3176C22.5584 18.9228 22.7693 18.5223 22.9706 18.1273ZM21.3905 18.7706C21.0096 19.4381 20.617 20.0714 20.2111 20.6598C19.4821 20.7252 18.744 20.7586 18 20.7586C17.2618 20.7586 16.5232 20.7228 15.7987 20.6635C15.3927 20.0758 14.9958 19.4479 14.6155 18.7848C14.2443 18.1373 13.9062 17.4799 13.5973 16.8167C13.9 16.1535 14.2443 15.4924 14.6095 14.8449C14.9904 14.178 15.3828 13.5441 15.7889 12.9557C16.5179 12.891 17.2558 12.8574 18 12.8574C18.7379 12.8574 19.4765 12.8927 20.2011 12.952C20.6073 13.5404 21.004 14.1683 21.3843 14.8311C21.7555 15.4782 22.0938 16.1357 22.4025 16.7988C22.0938 17.46 21.7579 18.1212 21.3905 18.7706ZM23.6309 13.5044C23.4493 14.1423 23.2243 14.7998 22.9706 15.4566C22.7693 15.0618 22.5603 14.665 22.3304 14.2707C22.1054 13.8759 21.8651 13.4889 21.6246 13.114C22.3204 13.2184 22.9901 13.347 23.6309 13.5044ZM20.2307 16.8032C20.2307 15.5556 19.2302 14.5427 17.9937 14.5427C16.7599 14.5427 15.7577 15.5536 15.7577 16.8032C15.7577 18.0526 16.7582 19.063 17.9937 19.063C19.2302 19.061 20.2307 18.0502 20.2307 16.8032ZM30 16.8032C30 15.1965 28.0096 13.6745 24.9571 12.729C25.6623 9.5848 25.3479 7.08388 23.9685 6.28254C23.6505 6.0946 23.2793 6.00632 22.8727 6.00632V7.10942C23.0977 7.10942 23.2793 7.15499 23.4316 7.23782C24.0975 7.62282 24.3848 9.09103 24.1599 10.9802C24.1055 11.4443 24.0173 11.9337 23.9102 12.4329C22.951 12.1962 21.9041 12.0122 20.8046 11.8941C20.1444 10.9802 19.4588 10.149 18.7692 9.42307C20.3633 7.92253 21.8595 7.10377 22.877 7.10377V6C21.5312 6 19.7714 6.96905 17.9901 8.65108C16.2089 6.97883 14.4492 6.01983 13.1034 6.01983V7.12293C14.1153 7.12293 15.6171 7.93869 17.2131 9.42673C16.5276 10.1533 15.844 10.9782 15.1934 11.8941C14.0878 12.0122 13.041 12.1962 12.0822 12.4367C11.9685 11.9436 11.8866 11.464 11.8278 11.0038C11.5972 9.11458 11.8829 7.64637 12.5431 7.25572C12.6894 7.16677 12.8807 7.12732 13.1051 7.12732V6.02555C12.6955 6.02555 12.3225 6.11449 11.9996 6.30237C10.6251 7.10377 10.3164 9.6003 11.0273 12.7351C7.98042 13.6825 6 15.2002 6 16.8032C6 18.4098 7.99036 19.9312 11.0427 20.8767C10.3377 24.0213 10.6526 26.5222 12.0315 27.3238C12.3495 27.5109 12.7205 27.6 13.1327 27.6C14.4785 27.6 16.2383 26.631 18.0194 24.9489C19.8007 26.6212 21.5605 27.5802 22.9063 27.5802C23.3166 27.5802 23.6896 27.4912 24.0119 27.304C25.3864 26.5024 25.6953 24.0052 24.984 20.871C28.0193 19.9275 30 18.4035 30 16.8032Z" fill="#00D8FF"/>
</svg>
